HIERARCHY
ROOT Hips
{
  OFFSET -35.4901 99.2528 17.4586
  CHANNELS 6 Xposition Yposition Zposition Zrotation Xrotation Yrotation
  JOINT LeftUpLeg
  {
    OFFSET 8.64259 1.95398 -2.38835
    CHANNELS 3 Zrotation Xrotation Yrotation
    JOINT LeftLeg
    {
      OFFSET 43.7702 0 0
      CHANNELS 3 Zrotation Xrotation Yrotation
      JOINT LeftFoot
      {
        OFFSET 40.6238 0 0
        CHANNELS 3 Zrotation Xrotation Yrotation
        JOINT LeftToeBase
        {
          OFFSET 12.7242 0 0
          CHANNELS 3 Zrotation Xrotation Yrotation
          End Site
          {
            OFFSET 0 0 0
          }
        }
      }
    }
  }
  JOINT RightUpLeg
  {
    OFFSET -8.2249 1.95398 -2.59336
    CHANNELS 3 Zrotation Xrotation Yrotation
    JOINT RightLeg
    {
      OFFSET 43.5653 0 0
      CHANNELS 3 Zrotation Xrotation Yrotation
      JOINT RightFoot
      {
        OFFSET 40.6238 0 0
        CHANNELS 3 Zrotation Xrotation Yrotation
        JOINT RightToeBase
        {
          OFFSET 12.7242 0 0
          CHANNELS 3 Zrotation Xrotation Yrotation
          End Site
          {
            OFFSET 0 0 0
          }
        }
      }
    }
  }
  JOINT Spine
  {
    OFFSET 0.165834 0.87714 6.61349
    CHANNELS 3 Zrotation Xrotation Yrotation
    JOINT Spine1
    {
      OFFSET 7.38963 1.71661e-005 0
      CHANNELS 3 Zrotation Xrotation Yrotation
      JOINT Spine2
      {
        OFFSET 11.9445 1.14441e-005 0
        CHANNELS 3 Zrotation Xrotation Yrotation
        JOINT Spine3
        {
          OFFSET 14.7254 4.19617e-005 0
          CHANNELS 3 Zrotation Xrotation Yrotation
          JOINT Spine4
          {
            OFFSET 10.9679 0 0
            CHANNELS 3 Zrotation Xrotation Yrotation
            JOINT RightShoulder
            {
              OFFSET 2.46616 -1.6653 3.69651
              CHANNELS 3 Zrotation Xrotation Yrotation
              JOINT RightArm
              {
                OFFSET 13.0012 0 0
                CHANNELS 3 Zrotation Xrotation Yrotation
                JOINT RightForeArm
                {
                  OFFSET 28.7848 1.52588e-005 0
                  CHANNELS 3 Zrotation Xrotation Yrotation
                  JOINT RightHand
                  {
                    OFFSET 26.5688 1.52588e-005 0
                    CHANNELS 3 Zrotation Xrotation Yrotation
                    End Site
                    {
                      OFFSET 0 0 0
                    }
                  }
                }
              }
            }
            JOINT LeftShoulder
            {
              OFFSET 2.38034 -1.29275 -3.7523
              CHANNELS 3 Zrotation Xrotation Yrotation
              JOINT LeftArm
              {
                OFFSET 16.3182 6.10351e-005 0
                CHANNELS 3 Zrotation Xrotation Yrotation
                JOINT LeftForeArm
                {
                  OFFSET 27.0901 0 0
                  CHANNELS 3 Zrotation Xrotation Yrotation
                  JOINT LeftHand
                  {
                    OFFSET 24.5451 1.52588e-005 0
                    CHANNELS 3 Zrotation Xrotation Yrotation
                    End Site
                    {
                      OFFSET 0 0 0
                    }
                  }
                }
              }
            }
            JOINT Neck
            {
              OFFSET 5.0226 -0.0266342 0
              CHANNELS 3 Zrotation Xrotation Yrotation
              JOINT Head
              {
                OFFSET 6.69364 2.86102e-005 0
                CHANNELS 3 Zrotation Xrotation Yrotation
                End Site
                {
                  OFFSET 0 0 0
                }
              }
            }
          }
        }
      }
    }
  }
}
MOTION
Frames:	12
Frame Time:	0.0416667
14.4534 90.3901 -270.493 79.0922 -40.3466 84.533 -162.82 -0.149413 119.793 -11.5666 67.8144 5.63776 80.2287 1.63683 -3.77114 39.2397 4.38143 -10.3377 148.756 15.5571 97.0882 -79.4749 9.40938 11.8742 99.2634 -13.2556 -1.87831 9.90589 -2.12567 5.6632 -5.83201 8.56051 -91.9314 9.62033 -12.4979 -2.86499 -1.99144 -12.6117 -2.30372 -24.9043 -11.054 -6.52807 -4.89171 -11.054 -6.52806 95.4338 -15.9113 -99.8359 56.9415 -8.31043 45.6856 -31.8899 -26.1574 -56.3565 -19.1097 0.951006 -19.9983 -84.1138 -27.4572 84.1678 -0.736263 6.17007 -51.9959 40.8352 -8.88771 -87.8471 11.4548 -0.249391 -5.67998 41.9897 1.50458 -9.58076 -19.9275 6.11142 1.76624 
14.8884 92.806 -265.309 74.3363 -46.4097 81.6034 -159.741 -0.191131 119.186 -13.4971 70.2053 6.25332 65.9478 -1.23645 5.42399 55.3836 3.4953 -15.1465 151.141 29.6348 95.2412 -73.8314 6.68426 9.54912 99.0104 -12.9538 -0.16326 9.85346 -1.50722 4.58382 -5.77552 8.2939 -92.1781 10.1326 -12.5002 -3.27635 -1.47999 -12.632 -2.71475 -24.3775 -10.9333 -6.91833 -4.36488 -10.9333 -6.91833 94.7154 -14.2522 -102.391 57.7337 -10.5004 51.0144 -29.6319 -23.2806 -55.7783 -21.1622 1.5428 -21.3642 -83.1487 -22.8022 85.2579 -1.69045 2.13632 -49.724 39.2097 -10.0285 -90.2564 10.2906 -0.481916 -7.87517 42.9796 4.7991 -9.34947 -22.2786 8.88218 3.19074 
15.1699 94.404 -259.125 68.3007 -56.0189 76.6442 -157.873 -4.39773 117.759 -12.7498 61.7609 4.95861 52.6511 -5.1789 5.4268 46.8534 4.42168 -13.8994 157.372 39.1965 94.6156 -61.7601 1.60631 7.75338 91.0217 -11.1042 -0.995919 13.0734 -1.84882 5.15671 -5.26808 8.13003 -92.416 10.4406 -11.6004 -3.77997 -1.18188 -11.7553 -3.2595 -24.0004 -9.92608 -7.11616 -3.98771 -9.92608 -7.11617 93.4926 -12.0386 -106.774 56.5768 -10.4151 53.8486 -28.4492 -22.5127 -56.2511 -17.7837 1.28956 -22.8169 -83.1002 -22.2788 85.2552 -1.33443 0.709184 -45.4649 38.6649 -11.164 -92.0795 9.15083 -0.435316 -7.80002 44.1115 8.91754 -6.57543 -24.6562 11.3568 2.82965 
15.4781 94.5628 -252.104 54.4602 -67.0307 64.2729 -160.437 -13.6947 113.806 -9.9623 42.3948 4.34339 48.4136 -4.72176 1.57269 19.5476 2.41509 -2.85353 163.879 44.4647 96.6788 -46.3399 -5.87241 6.20764 85.1241 -10.3489 -0.934759 13.505 -1.62459 4.73006 -4.21698 8.01862 -92.5645 10.6615 -9.57745 -4.22892 -0.97945 -9.75409 -3.80029 -23.6663 -7.86476 -6.92033 -3.65365 -7.86476 -6.92034 92.4032 -13.0328 -109.172 52.9575 -11.9748 53.6063 -26.2012 -21.0023 -55.1906 -15.0313 1.22931 -25.2879 -83.6482 -23.4391 84.3123 0.35598 2.08196 -43.2135 37.7378 -11.9717 -92.3416 7.8844 -0.38983 -7.68807 43.6941 11.1346 -6.14135 -24.8263 12.9764 3.82637 
15.8989 93.2243 -245.006 24.6453 -76.5722 33.8611 -168.89 -15.3098 102.383 -28.9039 25.8458 4.61891 53.2793 -1.80959 4.13343 25.2266 2.35915 -3.40346 168.941 46.4152 99.1303 -36.2568 -13.4822 4.68121 81.3731 -9.66913 -0.866224 14.2277 -1.32405 4.1417 -3.02805 8.09245 -92.3561 10.5564 -7.11292 -4.04607 -1.10032 -7.28395 -3.72815 -23.6901 -5.5698 -5.99759 -3.67746 -5.56977 -5.99758 91.4987 -16.7795 -109.411 45.7133 -12.9821 48.1025 -24.4767 -23.784 -53.5434 -15.7891 1.31264 -25.2314 -84.1184 -27.5323 84.1736 3.38303 5.61691 -42.549 39.6223 -13.15 -92.0891 8.09892 -0.334838 -7.03554 44.5229 12.0978 -6.69597 -25.2079 13.9563 4.99218 
16.3088 91.0349 -237.751 -23.8824 -79.4351 -17.1334 -171.547 -11.5259 92.5037 -48.5246 19.7296 1.63778 55.2277 -1.64084 4.01766 29.2512 4.32241 -7.37783 171.964 46.1177 100.242 -36.2763 -13.4976 3.28178 78.3649 -8.38239 -0.384591 18.4505 -0.247991 1.71137 -1.9788 8.21546 -91.7675 10.3728 -4.7511 -3.09693 -1.29264 -4.88273 -2.88462 -23.8427 -3.60149 -4.38136 -3.83007 -3.6015 -4.38138 90.6588 -21.7067 -108.892 38.3981 -9.12582 40.5045 -27.8546 -30.3927 -53.2873 -19.37 1.31897 -22.7471 -85.3992 -31.664 82.526 4.89613 10.7171 -41.6337 41.5976 -12.5335 -89.3703 9.27555 -0.428952 -7.68738 43.2725 11.7488 -6.58882 -23.5607 13.6414 4.6755 
16.2942 89.3186 -229.885 -53.3151 -78.0159 -47.1796 -167.812 -3.90658 92.2253 -66.6167 16.6407 -0.377831 54.6858 -2.02475 3.92789 32.3019 4.00842 -7.59363 173.34 45.5213 101.039 -43.8732 -14.843 2.5745 70.9349 -5.26657 -2.7009 15.2568 0.0443636 1.14811 -1.14224 8.26271 -91.3565 10.3097 -2.8959 -2.44471 -1.36014 -3.00065 -2.31489 -23.891 -2.02771 -3.20166 -3.87839 -2.0277 -3.20166 90.3141 -26.2146 -107.669 33.6879 -1.31 33.1355 -32.3753 -34.4501 -55.4303 -20.9091 0.891986 -19.3872 -86.334 -34.5343 81.4402 4.32793 17.4213 -41.4875 44.933 -9.37194 -84.4498 8.50784 -0.569639 -9.44359 37.6449 10.3216 -6.1445 -19.4814 11.9034 4.98522 
15.6041 87.3856 -221.709 -61.8658 -77.7367 -53.6447 -163.448 5.46737 95.4522 -85.7048 8.36673 1.88073 58.665 -0.212018 3.67856 34.534 4.56013 -9.23157 172.91 44.7241 103.423 -55.1676 -14.1366 2.57747 75.9451 -7.9055 -2.82198 13.6523 0.0482835 1.52727 -0.70406 8.27827 -91.7107 10.2797 -2.18479 -3.21096 -1.39302 -2.32394 -3.11179 -23.9019 -1.11949 -3.71846 -3.88929 -1.11948 -3.71846 91.0621 -26.1934 -106.067 32.1229 7.1525 24.2287 -31.6253 -33.017 -55.3539 -21.0716 0.792382 -17.9362 -86.042 -44.2841 83.7066 6.07885 23.207 -41.6934 47.372 -4.96608 -79.304 7.33371 -0.372219 -7.60337 32.6171 11.6745 0.564485 -15.8162 10.7694 1.21344 
15.0444 85.5095 -213.928 -67.8482 -78.0956 -57.1108 -162.632 20.4133 96.3342 -101.015 2.98264 4.99716 62.5658 1.40495 6.53992 33.2486 5.40998 -10.4055 172.274 40.8035 105.656 -62.3318 -13.5324 2.73365 85.5376 -13.0988 -3.82789 14.5412 -0.653853 2.84211 -0.360113 8.40509 -91.9489 10.0222 -1.6041 -3.73597 -1.6529 -1.76686 -3.6619 -24.146 -0.408166 -4.04483 -4.13333 -0.408161 -4.04484 90.7358 -28.8162 -105.734 32.1538 13.8466 11.1564 -31.4478 -34.3474 -56.1311 -24.4586 0.44838 -13.9042 -85.7057 -50.5566 85.2542 1.72706 26.0394 -33.7609 48.1058 -2.87202 -77.9282 7.35514 -0.29624 -6.78697 30.9984 11.6739 2.46665 -15.2451 10.142 0.180816 
14.5506 84.3571 -205.773 -74.8342 -78.4221 -63.2055 -166.067 33.9253 97.3118 -108.687 -0.930974 6.55205 68.0192 4.12004 3.36052 27.0585 6.87953 -11.0271 173.135 34.1129 105.168 -65.7389 -11.847 2.44271 95.1196 -17.0983 -1.64136 13.894 -0.14119 1.90287 -0.0702487 8.44879 -91.9123 9.94419 -1.00844 -3.71096 -1.73152 -1.17067 -3.66309 -24.2241 0.152567 -3.84234 -4.21145 0.152582 -3.84233 90.351 -30.3558 -105.931 36.0129 16.1025 -1.82486 -27.4103 -28.494 -56.1017 -26.0315 0.979171 -15.1882 -84.8068 -52.7567 86.8735 -9.63152 26.0685 -15.7821 49.2066 -5.99052 -80.859 7.77104 -0.554708 -9.64544 29.9336 10.6081 2.31079 -15.1902 9.15208 0.760452 
14.339 83.485 -197.172 -80.4077 -77.8647 -71.0026 -167.414 45.1703 94.9869 -108.333 -0.563836 6.30879 72.7305 6.59184 8.05151 28.1569 6.70649 -11.0789 174.656 26.8701 100.867 -67.3781 -9.92219 1.25128 104.835 -19.7717 2.88851 14.1289 0.170154 1.29323 0.329951 8.44361 -91.5014 9.98147 -0.0250943 -2.98443 -1.69286 -0.156357 -2.98044 -24.2026 0.872671 -2.85421 -4.18991 0.872676 -2.8542 89.6049 -29.2183 -107.851 39.6727 14.9705 -12.5344 -19.3773 -19.565 -56.1676 -34.4801 1.63376 -12.8953 -83.5003 -51.3181 88.6421 -19.1274 26.2599 1.10077 48.3779 -10.0537 -83.7377 9.24676 -0.467317 -8.05105 27.6171 8.98123 2.93105 -13.323 7.51872 -0.0813034 
14.2186 83.8618 -187.876 -84.0658 -77.5036 -77.8993 -168.304 52.7108 92.268 -99.7983 -5.26857 4.72481 75.1633 7.72297 6.42174 30.3614 6.48175 -11.3818 174.574 17.587 95.2803 -64.6759 -13.3546 0.0675917 107.986 -21.716 1.89109 16.2928 0.009213 1.38156 0.930383 8.31503 -90.9269 10.2528 1.43035 -1.96074 -1.41887 1.34268 -2.02178 -23.9532 1.95342 -1.44029 -3.9406 1.95343 -1.4403 89.6487 -27.1688 -108.614 41.2228 12.3831 -18.18 -15.7366 -16.6571 -62.6234 -31.9617 2.64544 -16.8726 -82.9173 -50.0379 89.3896 -23.1804 28.9593 15.6645 48.4651 -15.1257 -86.4598 7.67107 -0.46056 -8.59267 25.1219 5.74086 2.16149 -12.8327 4.8324 -0.811806 
